<svg width="24" height="24" viewBox="0 0 24 24" fill="none" xmlns="http://www.w3.org/2000/svg">
<path fill-rule="evenodd" clip-rule="evenodd" d="M6.293 15.293C6.10553 15.4805 6.00021 15.7348 6.00021 16C6.00021 16.2652 6.10553 16.5195 6.293 16.707L11.293 21.707C11.4805 21.8945 11.7348 21.9998 12 21.9998C12.2652 21.9998 12.5195 21.8945 12.707 21.707L17.707 16.707C17.8892 16.5184 17.99 16.2658 17.9877 16.0036C17.9854 15.7414 17.8802 15.4906 17.6948 15.3052C17.5094 15.1198 17.2586 15.0146 16.9964 15.0123C16.7342 15.01 16.4816 15.1108 16.293 15.293L12 19.586L7.707 15.293C7.51947 15.1055 7.26516 15.0002 7 15.0002C6.73484 15.0002 6.48053 15.1055 6.293 15.293ZM6.293 8.707C6.10553 8.51947 6.00021 8.26516 6.00021 8C6.00021 7.73484 6.10553 7.48053 6.293 7.293L11.293 2.293C11.4805 2.10553 11.7348 2.00021 12 2.00021C12.2652 2.00021 12.5195 2.10553 12.707 2.293L17.707 7.293C17.8892 7.4816 17.99 7.7342 17.9877 7.9964C17.9854 8.2586 17.8802 8.50941 17.6948 8.69482C17.5094 8.88023 17.2586 8.9854 16.9964 8.98767C16.7342 8.98995 16.4816 8.88916 16.293 8.707L12 4.414L7.707 8.707C7.51947 8.89447 7.26516 8.99979 7 8.99979C6.73484 8.99979 6.48053 8.89447 6.293 8.707ZM12 10C11.4696 10 10.9609 10.2107 10.5858 10.5858C10.2107 10.9609 10 11.4696 10 12C10 12.5304 10.2107 13.0391 10.5858 13.4142C10.9609 13.7893 11.4696 14 12 14C12.5304 14 13.0391 13.7893 13.4142 13.4142C13.7893 13.0391 14 12.5304 14 12C14 11.4696 13.7893 10.9609 13.4142 10.5858C13.0391 10.2107 12.5304 10 12 10Z" fill="#607D8B"/>
</svg>
