<svg width="25" height="25" viewBox="0 0 25 25" fill="none" xmlns="http://www.w3.org/2000/svg">
<path d="M18.3949 5.70093C20.7283 7.32259 22.3383 9.90093 22.6649 12.8759" stroke="#546E7A" stroke-width="1.5" stroke-linecap="round" stroke-linejoin="round"/>
<path d="M2.67993 12.9351C2.98326 9.9718 4.56993 7.39347 6.87993 5.76013" stroke="#546E7A" stroke-width="1.5" stroke-linecap="round" stroke-linejoin="round"/>
<path d="M8.16321 22.932C9.51654 23.6203 11.0565 24.0053 12.6782 24.0053C14.2415 24.0053 15.7115 23.6553 17.0299 23.0137" stroke="#546E7A" stroke-width="1.5" stroke-linecap="round" stroke-linejoin="round"/>
<path d="M12.6783 7.48667C14.4696 7.48667 15.9216 6.03458 15.9216 4.24333C15.9216 2.45209 14.4696 1 12.6783 1C10.8871 1 9.43498 2.45209 9.43498 4.24333C9.43498 6.03458 10.8871 7.48667 12.6783 7.48667Z" stroke="#546E7A" stroke-width="1.5" stroke-linecap="round" stroke-linejoin="round"/>
<path d="M4.24333 21.7419C6.03458 21.7419 7.48667 20.2898 7.48667 18.4986C7.48667 16.7073 6.03458 15.2552 4.24333 15.2552C2.45209 15.2552 1 16.7073 1 18.4986C1 20.2898 2.45209 21.7419 4.24333 21.7419Z" stroke="#546E7A" stroke-width="1.5" stroke-linecap="round" stroke-linejoin="round"/>
<path d="M20.9733 21.7419C22.7645 21.7419 24.2166 20.2898 24.2166 18.4986C24.2166 16.7073 22.7645 15.2552 20.9733 15.2552C19.1821 15.2552 17.73 16.7073 17.73 18.4986C17.73 20.2898 19.1821 21.7419 20.9733 21.7419Z" stroke="#546E7A" stroke-width="1.5" stroke-linecap="round" stroke-linejoin="round"/>
</svg>
