<svg width="28" height="24" viewBox="0 0 28 24" fill="none" xmlns="http://www.w3.org/2000/svg">
<path d="M8.80544 23.3758C19.3715 23.3758 25.1507 14.6219 25.1507 7.0305C25.1507 6.78186 25.1507 6.53435 25.1339 6.28795C26.2582 5.47473 27.2287 4.46781 28 3.31435C26.9516 3.77915 25.8394 4.08383 24.7005 4.21818C25.8998 3.50032 26.7973 2.3711 27.2261 1.04074C26.0984 1.70995 24.8647 2.18154 23.5782 2.43515C22.7121 1.51415 21.5666 0.904293 20.3189 0.699944C19.0712 0.495594 17.791 0.708145 16.6763 1.30471C15.5616 1.90127 14.6746 2.84858 14.1525 4.00005C13.6305 5.15152 13.5025 6.44295 13.7883 7.6745C11.5044 7.55994 9.27005 6.96638 7.23036 5.93235C5.19068 4.89833 3.39122 3.44695 1.9488 1.67242C1.21418 2.93709 0.989184 4.43419 1.31962 5.85892C1.65005 7.28364 2.51107 8.52887 3.72736 9.34107C2.8131 9.31428 1.91876 9.06764 1.12 8.62203V8.69483C1.12036 10.0211 1.57949 11.3065 2.41952 12.3329C3.25954 13.3593 4.42874 14.0636 5.7288 14.3262C4.88306 14.5569 3.99569 14.5906 3.13488 14.4247C3.50212 15.5661 4.21683 16.5642 5.17911 17.2795C6.14139 17.9948 7.30313 18.3915 8.50192 18.4142C7.31084 19.3504 5.94687 20.0426 4.48802 20.4512C3.02917 20.8598 1.50408 20.9767 0 20.7953C2.62714 22.4812 5.68391 23.3754 8.80544 23.3713" fill="#1DA1F2"/>
</svg>
